#!OML:ASF E:\emotionWalksFemale\Project 1\Capture day 1\Session 1\Female1.ASF
:FULLY-SPECIFIED
:DEGREES
1420
root 9.26088 14.9584 2.24127 176.092 -188.438 -177.452
lowerback 5.59492 -0.662559 -7.13484
upperback -3.56558 -1.6712 -2.82867
thorax -6.78821 -0.559847 1.21552
lowerneck -2.631 -2.79584 -7.89757
upperneck 19.8815 -4.1223 5.53323
head 6.748 -2.1454 2.83499
rclavicle -3.16068e-014 -4.37326e-014
rhumerus -54.1938 8.41507 -27.9184
rradius 30.7538
rwrist 31.9781
rhand -4.33213 300.791
rfingers 7.12502
rthumb 21.435 -448.043
lclavicle -3.16068e-014 -4.37326e-014
lhumerus -0.5341 -7.27448 65.6878
lradius 57.3895
lwrist -6.96768
lhand -3.83329 -29.0482
lfingers 7.12502
lthumb 21.914 -0.269316
rfemur -29.8908 6.54387 19.0049
rtibia 38.4306
rfoot -14.1711 -22.1822
rtoes -10.7782
lfemur 21.5685 -18.0626 -34.9234
ltibia 13.4191
lfoot -24.8387 14.7177
ltoes -23.2513
1421
root 9.24134 14.9222 2.40376 176.641 -188.667 -177.132
lowerback 5.68788 -0.740382 -7.07444
upperback -3.56784 -1.78699 -2.95215
thorax -6.84153 -0.62091 1.06661
lowerneck -2.50389 -2.82599 -7.79922
upperneck 19.7958 -4.17035 5.48813
head 6.69858 -2.16607 2.80139
rclavicle -9.93923e-015 1.82882e-014
rhumerus -55.4495 8.1326 -28.578
rradius 30.625
rwrist 32.2563
rhand -5.13755 300.526
rfingers 7.12502
rthumb 20.6612 -448.394
lclavicle -9.93923e-015 1.82882e-014
lhumerus -2.14067 -7.0486 65.8793
lradius 58.808
lwrist -6.70934
lhand -5.45661 -29.7939
lfingers 7.12502
lthumb 20.3546 -0.840634
rfemur -29.4456 6.27336 18.9631
rtibia 38.5388
rfoot -14.3271 -21.6167
rtoes -12.6002
lfemur 21.8622 -17.9034 -35.0312
ltibia 13.0294
lfoot -24.7467 14.4013
ltoes -22.0028
1422
root 9.22123 14.9013 2.56946 177.262 -189.032 -176.867
lowerback 5.59176 -0.860102 -7.33126
upperback -3.52201 -1.94485 -2.77709
thorax -6.71334 -0.686722 1.40823
lowerneck -2.0871 -2.86221 -7.92636
upperneck 19.3171 -4.19141 5.31525
head 6.47488 -2.20112 2.76739
rclavicle 5.96354e-015 1.59028e-015
rhumerus -56.4284 7.67748 -28.8482
rradius 30.5734
rwrist 32.2025
rhand -5.29364 299.979
rfingers 7.12502
rthumb 20.5113 -448.957
lclavicle 5.96354e-015 1.59028e-015
lhumerus -3.9107 -6.65483 66.4757
lradius 60.1206
lwrist -6.54553
lhand -7.32808 -30.5777
lfingers 7.12502
lthumb 18.5553 -1.44263
rfemur -29.093 6.13282 18.8898
rtibia 38.4919
rfoot -13.7737 -21.4046
rtoes -13.3015
lfemur 22.2569 -17.8331 -34.995
ltibia 12.3699
lfoot -24.5527 13.6791
ltoes -20.6499
1423
root 9.20554 14.9159 2.73533 178.03 -189.459 -176.731
lowerback 5.54493 -0.989654 -7.27679
upperback -3.58005 -2.10201 -2.60871
thorax -6.7307 -0.760414 1.57087
lowerneck -1.83775 -2.85161 -8.36755
upperneck 18.896 -4.19573 5.60543
head 6.31265 -2.21341 2.93566
rclavicle 3.77691e-015 -1.43125e-014
rhumerus -57.6153 7.02513 -29.1177
rradius 30.6319
rwrist 31.8244
rhand -5.69243 299.735
rfingers 7.12502
rthumb 20.128 -449.242
lclavicle 3.77691e-015 -1.43125e-014
lhumerus -5.60322 -6.3585 67.1427
lradius 61.072
lwrist -6.4516
lhand -9.09409 -31.3257
lfingers 7.12502
lthumb 16.8559 -2.03723
rfemur -29.2052 5.99113 18.8718
rtibia 38.432
rfoot -12.3035 -21.6826
rtoes -11.309
lfemur 22.4292 -17.8588 -34.7158
ltibia 11.7114
lfoot -23.9226 12.9051
ltoes -20.2508
1424
root 9.19183 14.9471 2.90566 178.799 -189.792 -176.789
lowerback 5.41487 -1.07185 -6.77682
upperback -3.62296 -2.1557 -2.53784
thorax -6.70681 -0.808367 1.37092
lowerneck -1.72293 -2.85941 -8.50623
upperneck 18.5058 -4.22871 5.82876
head 6.17782 -2.22167 3.02791
rclavicle 9.64106e-015 -1.66979e-014
rhumerus -58.9189 6.09123 -29.5697
rradius 30.5664
rwrist 31.4299
rhand -6.73024 299.795
rfingers 7.12502
rthumb 19.1303 -449.284
lclavicle 9.64106e-015 -1.66979e-014
lhumerus -7.24012 -6.18615 67.7305
lradius 61.8901
lwrist -6.34027
lhand -10.6145 -32.2622
lfingers 7.12502
lthumb 15.3919 -2.85516
rfemur -29.6304 5.65055 19.0856
rtibia 38.5034
rfoot -10.9161 -21.7299
rtoes -7.13991
lfemur 22.2654 -17.9692 -34.2649
ltibia 11.6195
lfoot -23.2154 12.4191
ltoes -20.2916
1425
root 9.17791 14.9694 3.07091 179.523 -190.032 -177.151
lowerback 5.27239 -1.11345 -5.99339
upperback -3.65655 -2.12631 -2.37466
thorax -6.67608 -0.826918 1.10078
lowerneck -1.38641 -2.96456 -8.4061
upperneck 17.9096 -4.37487 5.76249
head 5.93929 -2.29156 2.98149
rclavicle -3.00165e-014 -3.97569e-014
rhumerus -60.0623 4.83286 -29.9669
rradius 30.3902
rwrist 31.0588
rhand -7.90036 299.584
rfingers 7.12502
rthumb 18.0047 -449.603
lclavicle -3.00165e-014 -3.97569e-014
lhumerus -9.19529 -6.04055 68.4424
lradius 62.765
lwrist -6.36986
lhand -12.2449 -33.4472
lfingers 7.12502
lthumb 13.821 -3.92633
rfemur -30.1604 5.20185 19.6653
rtibia 38.7381
rfoot -9.98836 -21.3081
rtoes -4.06632
lfemur 21.4356 -17.9376 -33.4209
ltibia 12.6686
lfoot -22.6636 11.9431
ltoes -20.9976
1426
root 9.16415 14.9817 3.22476 180.152 -190.249 -177.698
lowerback 5.32422 -1.18353 -5.09182
upperback -3.65024 -2.13257 -2.08333
thorax -6.71182 -0.864157 0.906311
lowerneck -1.25611 -3.06006 -8.35709
upperneck 17.3251 -4.46728 5.56619
head 5.73647 -2.34398 2.90369
rclavicle 3.42407e-014 1.11319e-014
rhumerus -60.6946 3.08953 -30.0603
rradius 29.9365
rwrist 30.8746
rhand -8.63533 299.532
rfingers 7.12502
rthumb 17.2974 -449.718
lclavicle 3.42407e-014 1.11319e-014
lhumerus -11.3908 -5.69933 69.2667
lradius 63.6096
lwrist -6.54505
lhand -14.0974 -34.553
lfingers 7.12502
lthumb 12.0352 -4.91901
rfemur -30.5785 4.82899 20.4577
rtibia 39.1534
rfoot -9.77366 -20.7997
rtoes -2.83955
lfemur 20.0821 -17.5958 -32.2407
ltibia 14.6989
lfoot -22.1488 11.1896
ltoes -22.946
1427
root 9.14467 14.9905 3.38401 180.495 -190.262 -178.548
lowerback 5.43131 -1.2098 -4.09983
upperback -3.48649 -2.05946 -1.64739
thorax -6.61362 -0.867495 0.802814
lowerneck -1.61624 -3.07187 -8.28528
upperneck 16.9855 -4.41074 5.32921
head 5.68252 -2.31858 2.81271
rclavicle -5.37713e-014 -3.33958e-014
rhumerus -60.9809 1.0381 -30.0591
rradius 29.2591
rwrist 30.9812
rhand -8.68231 299.727
rfingers 7.12502
rthumb 17.2522 -449.527
lclavicle -5.37713e-014 -3.33958e-014
lhumerus -13.514 -5.12201 70.1051
lradius 64.0896
lwrist -6.72802
lhand -15.7324 -35.5421
lfingers 7.12502
lthumb 10.4583 -5.82226
rfemur -30.6454 4.78938 21.6615
rtibia 39.6047
rfoot -10.3615 -20.4252
rtoes -1.77712
lfemur 18.6993 -16.9849 -30.7288
ltibia 17.288
lfoot -21.8928 10.1075
ltoes -23.4598
1428
root 9.12926 15.0005 3.53858 180.717 -190.28 -179.127
lowerback 5.76091 -1.25382 -3.33083
upperback -3.35067 -2.0466 -1.32437
thorax -6.67012 -0.888556 0.71661
lowerneck -1.93823 -3.09039 -8.19005
upperneck 16.7538 -4.37973 5.13374
head 5.65778 -2.30329 2.73088
rclavicle 3.23025e-015 9.93923e-015
rhumerus -61.3937 -0.680078 -30.5326
rradius 28.9001
rwrist 30.8708
rhand -7.7985 299.418
rfingers 7.12502
rthumb 18.1027 -449.76
lclavicle 3.23025e-015 9.93923e-015
lhumerus -15.9978 -4.61401 70.8371
lradius 64.3118
lwrist -6.81049
lhand -17.3106 -36.4455
lfingers 7.12502
lthumb 8.93565 -6.65471
rfemur -30.4989 4.42025 22.6015
rtibia 39.9627
rfoot -11.068 -19.9492
rtoes -0.191642
lfemur 17.3948 -16.172 -29.4907
ltibia 19.9908
lfoot -21.5952 8.68332
ltoes -22.1518
1429
root 9.11126 15.0187 3.69511 180.968 -190.309 -179.403
lowerback 6.00913 -1.34492 -2.93356
upperback -3.21962 -2.12536 -1.0696
thorax -6.67379 -0.940028 0.774704
lowerneck -1.94301 -3.15529 -8.12689
upperneck 16.375 -4.42681 4.90434
head 5.53869 -2.33397 2.64347
rclavicle -1.89342e-014 -6.36111e-015
rhumerus -61.6527 -2.34138 -31.222
rradius 28.7402
rwrist 30.6459
rhand -6.49058 299.175
rfingers 7.12502
rthumb 19.3607 -449.882
lclavicle -1.89342e-014 -6.36111e-015
lhumerus -18.8787 -4.21021 71.4254
lradius 64.5515
lwrist -6.64385
lhand -18.7818 -37.0219
lfingers 7.12502
lthumb 7.51574 -7.17539
rfemur -30.2544 4.04072 23.1899
rtibia 40.1214
rfoot -11.7149 -19.748
rtoes 1.14366
lfemur 16.1371 -15.0886 -28.4205
ltibia 22.4414
lfoot -20.8373 7.00814
ltoes -21.2479
